<svg width="20" height="21" viewBox="0 0 20 21" fill="none" xmlns="http://www.w3.org/2000/svg">
<path d="M1.66669 3.74715C1.66669 3.28044 1.66669 3.04709 1.75751 2.86883C1.83741 2.71202 1.96489 2.58454 2.12169 2.50465C2.29995 2.41382 2.53331 2.41382 3.00002 2.41382H7.00002C7.46673 2.41382 7.70009 2.41382 7.87835 2.50465C8.03515 2.58454 8.16263 2.71202 8.24253 2.86883C8.33335 3.04709 8.33335 3.28044 8.33335 3.74715V7.74715C8.33335 8.21386 8.33335 8.44722 8.24253 8.62548C8.16263 8.78228 8.03515 8.90976 7.87835 8.98966C7.70009 9.08048 7.46673 9.08048 7.00002 9.08048H3.00002C2.53331 9.08048 2.29995 9.08048 2.12169 8.98966C1.96489 8.90976 1.83741 8.78228 1.75751 8.62548C1.66669 8.44722 1.66669 8.21386 1.66669 7.74715V3.74715Z" stroke="white" stroke-width="1.5"/>
<path d="M1.66669 13.7472C1.66669 13.2804 1.66669 13.0471 1.75751 12.8688C1.83741 12.712 1.96489 12.5845 2.12169 12.5046C2.29995 12.4138 2.53331 12.4138 3.00002 12.4138H7.00002C7.46673 12.4138 7.70009 12.4138 7.87835 12.5046C8.03515 12.5845 8.16263 12.712 8.24253 12.8688C8.33335 13.0471 8.33335 13.2804 8.33335 13.7472V17.7471C8.33335 18.2139 8.33335 18.4472 8.24253 18.6255C8.16263 18.7823 8.03515 18.9098 7.87835 18.9897C7.70009 19.0805 7.46673 19.0805 7.00002 19.0805H3.00002C2.53331 19.0805 2.29995 19.0805 2.12169 18.9897C1.96489 18.9098 1.83741 18.7823 1.75751 18.6255C1.66669 18.4472 1.66669 18.2139 1.66669 17.7471V13.7472Z" stroke="white" stroke-width="1.5"/>
<path d="M11.6667 3.74715C11.6667 3.28044 11.6667 3.04709 11.7575 2.86883C11.8374 2.71202 11.9649 2.58454 12.1217 2.50465C12.3 2.41382 12.5333 2.41382 13 2.41382H17C17.4667 2.41382 17.7001 2.41382 17.8783 2.50465C18.0351 2.58454 18.1626 2.71202 18.2425 2.86883C18.3334 3.04709 18.3334 3.28044 18.3334 3.74715V7.74715C18.3334 8.21386 18.3334 8.44722 18.2425 8.62548C18.1626 8.78228 18.0351 8.90976 17.8783 8.98966C17.7001 9.08048 17.4667 9.08048 17 9.08048H13C12.5333 9.08048 12.3 9.08048 12.1217 8.98966C11.9649 8.90976 11.8374 8.78228 11.7575 8.62548C11.6667 8.44722 11.6667 8.21386 11.6667 7.74715V3.74715Z" stroke="white" stroke-width="1.5"/>
<path d="M11.6667 13.7472C11.6667 13.2804 11.6667 13.0471 11.7575 12.8688C11.8374 12.712 11.9649 12.5845 12.1217 12.5046C12.3 12.4138 12.5333 12.4138 13 12.4138H17C17.4667 12.4138 17.7001 12.4138 17.8783 12.5046C18.0351 12.5845 18.1626 12.712 18.2425 12.8688C18.3334 13.0471 18.3334 13.2804 18.3334 13.7472V17.7471C18.3334 18.2139 18.3334 18.4472 18.2425 18.6255C18.1626 18.7823 18.0351 18.9098 17.8783 18.9897C17.7001 19.0805 17.4667 19.0805 17 19.0805H13C12.5333 19.0805 12.3 19.0805 12.1217 18.9897C11.9649 18.9098 11.8374 18.7823 11.7575 18.6255C11.6667 18.4472 11.6667 18.2139 11.6667 17.7471V13.7472Z" stroke="white" stroke-width="1.5"/>
</svg>
