<svg width="19" height="20" viewBox="0 0 19 20" fill="none" xmlns="http://www.w3.org/2000/svg">
<g clip-path="url(#clip0_69_1199)">
<path d="M16.4339 18.7016C16.922 19.1898 17.7135 19.1898 18.2017 18.7016C18.6898 18.2134 18.6898 17.422 18.2017 16.9338L16.4339 18.7016ZM13.3086 8.62031C13.3086 11.4857 10.9857 13.8085 8.12037 13.8085V16.3085C12.3664 16.3085 15.8086 12.8664 15.8086 8.62031H13.3086ZM8.12037 13.8085C5.25502 13.8085 2.93219 11.4857 2.93219 8.62031H0.43219C0.43219 12.8664 3.87431 16.3085 8.12037 16.3085V13.8085ZM2.93219 8.62031C2.93219 5.75496 5.25502 3.43213 8.12037 3.43213V0.932129C3.87431 0.932129 0.43219 4.37425 0.43219 8.62031H2.93219ZM8.12037 3.43213C10.9857 3.43213 13.3086 5.75496 13.3086 8.62031H15.8086C15.8086 4.37425 12.3664 0.932129 8.12037 0.932129V3.43213ZM11.8352 14.1029L16.4339 18.7016L18.2017 16.9338L13.603 12.3351L11.8352 14.1029Z" fill="white"/>
</g>
<defs>
<clipPath id="clip0_69_1199">
<rect width="19" height="19" fill="white" transform="translate(0 0.5)"/>
</clipPath>
</defs>
</svg>
