<svg width="19" height="20" viewBox="0 0 19 20" fill="none" xmlns="http://www.w3.org/2000/svg">
<g clip-path="url(#clip0_69_1199)">
<path d="M16.4339 18.4487C16.922 18.9368 17.7135 18.9368 18.2017 18.4487C18.6898 17.9605 18.6898 17.1691 18.2017 16.6809L16.4339 18.4487ZM13.3086 8.36738C13.3086 11.2327 10.9857 13.5556 8.12037 13.5556V16.0556C12.3664 16.0556 15.8086 12.6134 15.8086 8.36738H13.3086ZM8.12037 13.5556C5.25502 13.5556 2.93219 11.2327 2.93219 8.36738H0.43219C0.43219 12.6134 3.87431 16.0556 8.12037 16.0556V13.5556ZM2.93219 8.36738C2.93219 5.50203 5.25502 3.1792 8.12037 3.1792V0.679199C3.87431 0.679199 0.43219 4.12132 0.43219 8.36738H2.93219ZM8.12037 3.1792C10.9857 3.1792 13.3086 5.50203 13.3086 8.36738H15.8086C15.8086 4.12132 12.3664 0.679199 8.12037 0.679199V3.1792ZM11.8352 13.85L16.4339 18.4487L18.2017 16.6809L13.603 12.0822L11.8352 13.85Z" fill="white"/>
</g>
<defs>
<clipPath id="clip0_69_1199">
<rect width="19" height="19" fill="white" transform="translate(0 0.24707)"/>
</clipPath>
</defs>
</svg>
