<svg width="20" height="21" viewBox="0 0 20 21" fill="none" xmlns="http://www.w3.org/2000/svg">
<path d="M7.5 7.41366V11.5803M12.5 9.91366V14.0803M3.86682 17.1079L6.43303 14.9694C7.0511 14.4543 7.9489 14.4543 8.56697 14.9694L11.433 17.3578C12.0511 17.8728 12.9489 17.8728 13.567 17.3578L16.9003 14.58C17.2803 14.2633 17.5 13.7943 17.5 13.2996V5.02611C17.5 4.31958 16.676 3.93362 16.1332 4.38593L13.567 6.52443C12.9489 7.0395 12.0511 7.03949 11.433 6.52443L8.56697 4.13605C7.9489 3.62099 7.0511 3.62099 6.43303 4.13605L3.09969 6.91383C2.7197 7.23049 2.5 7.69957 2.5 8.1942V16.4677C2.5 17.1742 3.32405 17.5602 3.86682 17.1079Z" stroke="#171E1D" stroke-width="1.5" stroke-linecap="round"/>
</svg>
