<svg width="13" height="14" viewBox="0 0 13 14" fill="none" xmlns="http://www.w3.org/2000/svg">
<path fill-rule="evenodd" clip-rule="evenodd" d="M7.01493 0.591974C6.96954 0.489005 6.89692 0.4018 6.80567 0.340677C6.71441 0.279554 6.60834 0.24707 6.5 0.24707C6.39166 0.24707 6.28559 0.279554 6.19433 0.340677C6.10308 0.4018 6.03046 0.489005 5.98507 0.591974L4.35748 4.28422L0.500606 4.76326C0.392998 4.77656 0.291283 4.82185 0.207498 4.89377C0.123713 4.96569 0.0613656 5.06123 0.0278354 5.16908C-0.00569488 5.27694 -0.00900466 5.39259 0.0182977 5.50235C0.0456001 5.61211 0.102372 5.71138 0.181894 5.78842L3.03443 8.5487L2.27734 12.5378C2.25631 12.6489 2.26614 12.7641 2.30567 12.8697C2.34519 12.9752 2.41276 13.0667 2.50038 13.1333C2.588 13.1999 2.69201 13.2389 2.80011 13.2456C2.90822 13.2523 3.0159 13.2265 3.11042 13.1711L6.5 11.1849L9.88958 13.1711C9.98416 13.2267 10.092 13.2527 10.2002 13.2461C10.3085 13.2394 10.4127 13.2004 10.5004 13.1337C10.5882 13.067 10.6558 12.9753 10.6953 12.8696C10.7348 12.7638 10.7445 12.6485 10.7232 12.5372L9.96614 8.54929L12.8181 5.78842C12.8976 5.71138 12.9544 5.61211 12.9817 5.50235C13.009 5.39259 13.0057 5.27694 12.9722 5.16908C12.9386 5.06123 12.8763 4.96569 12.7925 4.89377C12.7087 4.82185 12.607 4.77656 12.4994 4.76326L8.64195 4.28363L7.01493 0.591974Z" fill="#FAC50A"/>
</svg>
