<svg width="7" height="11" viewBox="0 0 7 11" fill="none" xmlns="http://www.w3.org/2000/svg">
<path d="M4.97016 3.41213C4.88655 3.84997 4.46382 4.13713 4.02598 4.05352C3.58813 3.9699 3.30097 3.54717 3.38459 3.10933C3.4682 2.67148 3.89093 2.38432 4.32877 2.46794C4.76662 2.55155 5.05378 2.97428 4.97016 3.41213Z" fill="#00C29F"/>
<path d="M1.65038 10.6516C0.36874 10.2042 -0.312355 8.80142 0.139926 7.50561C0.262926 7.15321 0.33941 6.94985 0.457491 6.59577C0.522282 6.39848 1.04826 5.51266 1.4038 5.27087C1.97415 4.88298 2.18871 4.84841 2.74036 4.75549C3.40469 4.64357 4.21574 4.92537 4.80436 4.67478C5.20805 4.50378 5.52305 4.1672 5.66826 3.75115C5.68211 3.71148 5.69371 3.67401 5.70342 3.63664C5.71027 3.61173 5.71612 3.58647 5.72165 3.5611C5.72729 3.5354 5.73228 3.50946 5.73649 3.48363C5.74616 3.42305 5.7524 3.36278 5.75508 3.30425C5.77846 2.78472 5.54419 2.29232 5.12863 1.98759C5.08212 1.9534 5.03182 1.92051 4.9786 1.89072C4.95604 1.87798 4.93292 1.8658 4.90957 1.85428C4.88655 1.84288 4.86341 1.83181 4.83959 1.82163C4.8047 1.80608 4.76857 1.79198 4.72966 1.7784C4.69075 1.76482 4.65336 1.75326 4.61637 1.74372C4.59172 1.73698 4.56672 1.73125 4.5416 1.72585C4.51615 1.72033 4.49047 1.71548 4.46489 1.71141C4.44559 1.70842 4.42618 1.70576 4.40742 1.70332C4.38867 1.70089 4.36968 1.69913 4.35123 1.69792C4.3329 1.69639 4.3149 1.69497 4.29689 1.69466C4.25976 1.69292 4.22549 1.69256 4.19219 1.69365C3.66885 1.7062 3.17488 1.99491 2.90387 2.44708L2.90329 2.44875L2.90238 2.4503C2.8959 2.46038 2.88849 2.47313 2.88073 2.48688C2.86795 2.50972 2.85572 2.53312 2.84414 2.55675C2.83268 2.58005 2.82154 2.60347 2.81129 2.62756C2.8076 2.636 2.80403 2.6441 2.80068 2.65266C2.67481 2.80133 2.46804 2.85855 2.2857 2.79491C2.06577 2.71815 1.93663 2.49468 1.97812 2.26346C2.01191 2.18363 2.05066 2.1044 2.09266 2.02856L2.09584 2.02369C2.68503 0.969386 3.93199 0.490231 5.05965 0.883822C5.67821 1.09972 6.17553 1.54855 6.46038 2.14724C6.74555 2.74604 6.78218 3.42003 6.56389 4.04543L4.79526 9.11265C4.34298 10.4085 2.93203 11.0989 1.65038 10.6516Z" fill="#00C29F"/>
</svg>
